# xmcd
#
# Track frame offsets:
#	150
#	22060
#	42312
#	59696
#	73343
#	86720
#	103248
#	116528
#	130715
#	149025
#	166352
#	186079
#	204809
#	221019
#
# Disc length: 3189
#
# Revision: 2
# Processed by: cddbd v1.5.1PL0 Copyright (c) Steve Scherf et al.
# Submitted via: ExactAudioCopy v0.90b4
# Normalized: r0:DSETVAR1,TDELIM( - ),TSWAP
#
DISCID=dc0c730e
DTITLE=Various Artist - Hitz Country 2004, vol. 3
DYEAR=2004
DGENRE=Country
TTITLE0=Kenny Chesney f. Uncle Kracker - When The Sun Goes Down
TTITLE1=John Michael Montgomery - Letters From Home
TTITLE2=Clint Black - Spend My Time
TTITLE3=Montgomery Gentry - If You Ever Stop Loving Me
TTITLE4=Brooks and Dunn - That's What She Gets For Loving Me
TTITLE5=Vince Gil - In These Last Few Days
TTITLE6=Lee Ann Womack - The Wrong Girl
TTITLE7=Joe Diffie - Tougher Than Nails
TTITLE8=Julie Roberts - Break Down Here
TTITLE9=James Otto - Sunday Morning, Saturday Night
TTITLE10=Cross Canadian Ragweed - Sick and Tired
TTITLE11=Sherrie Austin - Drivin' Into The Sun
TTITLE12=Gretchen Wilson - Redneck Woman
TTITLE13=Toby Keith - I Love This Bar
EXTD=
EXTT0=
EXTT1=
EXTT2=
EXTT3=
EXTT4=
EXTT5=
EXTT6=
EXTT7=
EXTT8=
EXTT9=
EXTT10=
EXTT11=
EXTT12=
EXTT13=
PLAYORDER=
